<mxfile host="65bd71144e">
    <diagram id="vhkqi7gP0PkTIk5tP1Dc" name="Page-1">
        <mxGraphModel dx="1066" dy="612" grid="1" gridSize="10" guides="1" tooltips="1" connect="1" arrows="1" fold="1" page="1" pageScale="1" pageWidth="827" pageHeight="1169" math="0" shadow="0">
            <root>
                <mxCell id="0"/>
                <mxCell id="1" parent="0"/>
                <mxCell id="2" value="Spring Framework Runtime" style="rounded=0;whiteSpace=wrap;html=1;verticalAlign=top;align=left;fillColor=#f5f5f5;fontColor=#333333;strokeColor=#666666;" vertex="1" parent="1">
                    <mxGeometry x="70" y="80" width="600" height="430" as="geometry"/>
                </mxCell>
                <mxCell id="3" value="Data Access/Integration" style="rounded=0;whiteSpace=wrap;html=1;verticalAlign=top;fillColor=#60a917;strokeColor=#2D7600;fontColor=#ffffff;" vertex="1" parent="1">
                    <mxGeometry x="90" y="110" width="270" height="180" as="geometry"/>
                </mxCell>
                <mxCell id="4" value="JDBC" style="rounded=1;whiteSpace=wrap;html=1;fillColor=#647687;fontColor=#ffffff;strokeColor=#314354;" vertex="1" parent="1">
                    <mxGeometry x="107.5" y="140" width="100" height="30" as="geometry"/>
                </mxCell>
                <mxCell id="5" value="OXM" style="rounded=1;whiteSpace=wrap;html=1;fillColor=#647687;fontColor=#ffffff;strokeColor=#314354;" vertex="1" parent="1">
                    <mxGeometry x="107.5" y="190" width="100" height="30" as="geometry"/>
                </mxCell>
                <mxCell id="6" value="JMS" style="rounded=1;whiteSpace=wrap;html=1;fillColor=#647687;fontColor=#ffffff;strokeColor=#314354;" vertex="1" parent="1">
                    <mxGeometry x="242.5" y="190" width="100" height="30" as="geometry"/>
                </mxCell>
                <mxCell id="8" value="ORM" style="rounded=1;whiteSpace=wrap;html=1;fillColor=#647687;fontColor=#ffffff;strokeColor=#314354;" vertex="1" parent="1">
                    <mxGeometry x="242.5" y="140" width="100" height="30" as="geometry"/>
                </mxCell>
                <mxCell id="10" value="Transactions" style="rounded=1;whiteSpace=wrap;html=1;fillColor=#647687;fontColor=#ffffff;strokeColor=#314354;" vertex="1" parent="1">
                    <mxGeometry x="107.5" y="240" width="235" height="30" as="geometry"/>
                </mxCell>
                <mxCell id="11" value="Web&lt;br&gt;(MVC/Remoting)" style="rounded=0;whiteSpace=wrap;html=1;verticalAlign=top;fillColor=#60a917;strokeColor=#2D7600;fontColor=#ffffff;" vertex="1" parent="1">
                    <mxGeometry x="380" y="110" width="270" height="180" as="geometry"/>
                </mxCell>
                <mxCell id="12" value="Web" style="rounded=1;whiteSpace=wrap;html=1;fillColor=#647687;fontColor=#ffffff;strokeColor=#314354;" vertex="1" parent="1">
                    <mxGeometry x="465" y="150" width="100" height="30" as="geometry"/>
                </mxCell>
                <mxCell id="13" value="Servlet" style="rounded=1;whiteSpace=wrap;html=1;fillColor=#647687;fontColor=#ffffff;strokeColor=#314354;" vertex="1" parent="1">
                    <mxGeometry x="400" y="240" width="100" height="30" as="geometry"/>
                </mxCell>
                <mxCell id="14" value="Portlet" style="rounded=1;whiteSpace=wrap;html=1;fillColor=#647687;fontColor=#ffffff;strokeColor=#314354;" vertex="1" parent="1">
                    <mxGeometry x="530" y="240" width="100" height="30" as="geometry"/>
                </mxCell>
                <mxCell id="17" value="AOP" style="rounded=1;whiteSpace=wrap;html=1;fillColor=#60a917;fontColor=#ffffff;strokeColor=#2D7600;" vertex="1" parent="1">
                    <mxGeometry x="90" y="310" width="130" height="30" as="geometry"/>
                </mxCell>
                <mxCell id="18" value="Aspects" style="rounded=1;whiteSpace=wrap;html=1;fillColor=#60a917;fontColor=#ffffff;strokeColor=#2D7600;" vertex="1" parent="1">
                    <mxGeometry x="230" y="310" width="130" height="30" as="geometry"/>
                </mxCell>
                <mxCell id="19" value="Messaging" style="rounded=1;whiteSpace=wrap;html=1;fillColor=#60a917;fontColor=#ffffff;strokeColor=#2D7600;" vertex="1" parent="1">
                    <mxGeometry x="520" y="310" width="130" height="30" as="geometry"/>
                </mxCell>
                <mxCell id="20" value="Core Container" style="rounded=0;whiteSpace=wrap;html=1;verticalAlign=top;fillColor=#60a917;fontColor=#ffffff;strokeColor=#2D7600;" vertex="1" parent="1">
                    <mxGeometry x="90" y="350" width="560" height="90" as="geometry"/>
                </mxCell>
                <mxCell id="21" value="Beans" style="rounded=1;whiteSpace=wrap;html=1;fillColor=#647687;fontColor=#ffffff;strokeColor=#314354;" vertex="1" parent="1">
                    <mxGeometry x="105" y="390" width="120" height="30" as="geometry"/>
                </mxCell>
                <mxCell id="23" value="Core" style="rounded=1;whiteSpace=wrap;html=1;fillColor=#647687;fontColor=#ffffff;strokeColor=#314354;" vertex="1" parent="1">
                    <mxGeometry x="240" y="390" width="120" height="30" as="geometry"/>
                </mxCell>
                <mxCell id="24" value="Context" style="rounded=1;whiteSpace=wrap;html=1;fillColor=#647687;fontColor=#ffffff;strokeColor=#314354;" vertex="1" parent="1">
                    <mxGeometry x="375" y="390" width="120" height="30" as="geometry"/>
                </mxCell>
                <mxCell id="25" value="Expression&lt;br&gt;Language" style="rounded=1;whiteSpace=wrap;html=1;fillColor=#647687;fontColor=#ffffff;strokeColor=#314354;" vertex="1" parent="1">
                    <mxGeometry x="515" y="390" width="120" height="30" as="geometry"/>
                </mxCell>
                <mxCell id="27" value="Test" style="rounded=0;whiteSpace=wrap;html=1;verticalAlign=middle;align=center;fillColor=#60a917;fontColor=#ffffff;strokeColor=#2D7600;" vertex="1" parent="1">
                    <mxGeometry x="90" y="450" width="560" height="40" as="geometry"/>
                </mxCell>
                <mxCell id="34" value="Instrumentation" style="rounded=1;whiteSpace=wrap;html=1;fillColor=#60a917;fontColor=#ffffff;strokeColor=#2D7600;" vertex="1" parent="1">
                    <mxGeometry x="380" y="310" width="130" height="30" as="geometry"/>
                </mxCell>
            </root>
        </mxGraphModel>
    </diagram>
</mxfile>